<svg width="1280" height="720" viewBox="0 0 1280 720" fill="none" xmlns="http://www.w3.org/2000/svg">
  <rect width="1280" height="720" fill="#F0EEE9"/>
  <rect x="120" y="92" width="1040" height="536" rx="28" fill="#FAF9F6" stroke="#DDD9CE" stroke-width="4"/>
  <rect x="120" y="92" width="250" height="536" rx="28" fill="#4A6B82"/>
  <rect x="174" y="158" width="142" height="24" rx="12" fill="#FAF9F6"/>
  <rect x="174" y="226" width="132" height="18" rx="9" fill="#C9D6DF"/>
  <rect x="174" y="276" width="158" height="18" rx="9" fill="#C9D6DF"/>
  <rect x="174" y="326" width="112" height="18" rx="9" fill="#C9D6DF"/>
  <rect x="430" y="154" width="290" height="36" rx="18" fill="#2C2C2A"/>
  <rect x="430" y="232" width="654" height="68" rx="16" fill="#F0EEE9"/>
  <rect x="430" y="324" width="654" height="68" rx="16" fill="#F0EEE9"/>
  <rect x="430" y="416" width="654" height="68" rx="16" fill="#F0EEE9"/>
  <rect x="458" y="256" width="80" height="20" rx="10" fill="#8C7863"/>
  <rect x="458" y="348" width="80" height="20" rx="10" fill="#8C7863"/>
  <rect x="458" y="440" width="80" height="20" rx="10" fill="#8C7863"/>
  <rect x="584" y="256" width="360" height="20" rx="10" fill="#DDD9CE"/>
  <rect x="584" y="348" width="420" height="20" rx="10" fill="#DDD9CE"/>
  <rect x="584" y="440" width="300" height="20" rx="10" fill="#DDD9CE"/>
</svg>
